<svg width="20" height="20" viewBox="0 0 20 20" fill="none" xmlns="http://www.w3.org/2000/svg">
<path d="M19.2163 15.4352L13.7812 10.0027L19.2133 4.57014C20.2582 3.52825 20.2582 1.83249 19.2133 0.79059C18.1684 -0.260473 16.4789 -0.257418 15.434 0.787535L9.99885 6.22007L4.56368 0.781425C3.51881 -0.263528 1.82624 -0.257417 0.781363 0.781425C-0.260454 1.82638 -0.260454 3.52213 0.781363 4.56403L6.21959 10.0027L0.793585 15.426C-0.251288 16.471 -0.251288 18.1668 0.793585 19.2056C1.31602 19.7311 1.99733 19.9908 2.68169 19.9908C3.3691 19.9908 4.05041 19.7311 4.57285 19.2086L9.99885 13.7822L15.4371 19.2178C15.9595 19.7403 16.6408 20 17.3252 20C18.0095 20 18.6939 19.7372 19.2163 19.2178C20.2612 18.1729 20.2612 16.4802 19.2163 15.4352Z" fill="#5A5685"/>
</svg>
