<svg width="50" height="62" viewBox="0 0 50 62" fill="none" xmlns="http://www.w3.org/2000/svg">
<path d="M42.9683 37.2C43.8917 37.2 44.8061 37.3804 45.6592 37.7309C46.5123 38.0815 47.2875 38.5952 47.9405 39.2429C48.5934 39.8906 49.1114 40.6595 49.4647 41.5058C49.8181 42.352 50 43.259 50 44.175V46.9774C50.0004 48.6531 49.6356 50.3091 48.9306 51.8319C48.2256 53.3547 47.197 54.7083 45.9154 55.8C41.0244 59.9664 34.0209 62 24.9891 62C15.9572 62 8.96306 59.9664 4.0815 55.8C2.80162 54.7091 1.77434 53.3568 1.06991 51.8357C0.365488 50.3146 0.0005314 48.6606 0 46.9867V44.1719C0.000828613 42.3226 0.74203 40.5492 2.06064 39.2418C3.37925 37.9344 5.16731 37.2 7.03169 37.2H42.9683ZM24.6765 0.0186001L24.9891 0C25.5555 2.3693e-05 26.1027 0.203492 26.5296 0.572778C26.9564 0.942063 27.2341 1.45218 27.3111 2.0088L27.333 2.325L27.3298 4.6469H38.268C40.1329 4.6469 41.9215 5.38176 43.2402 6.68983C44.5589 7.9979 45.2997 9.77201 45.2997 11.6219V25.5874C45.2997 27.4373 44.5589 29.2114 43.2402 30.5195C41.9215 31.8275 40.1329 32.5624 38.268 32.5624H11.7039C9.83894 32.5624 8.0504 31.8275 6.7317 30.5195C5.413 29.2114 4.67217 27.4373 4.67217 25.5874V11.625C4.67217 10.7088 4.85415 9.80152 5.20772 8.95507C5.56129 8.10862 6.07952 7.33956 6.73281 6.69183C7.38609 6.0441 8.16162 5.53039 9.01511 5.18005C9.8686 4.82971 10.7833 4.64959 11.707 4.65L22.6452 4.6469V2.325C22.6453 1.7627 22.8509 1.21949 23.2238 0.796001C23.5967 0.372508 24.1117 0.0974233 24.6734 0.0216999L24.9891 0L24.6703 0.0216999M17.9542 13.95C17.4285 13.9291 16.9039 14.0138 16.412 14.199C15.9201 14.3842 15.4709 14.666 15.0915 15.0276C14.7121 15.3892 14.4102 15.8231 14.204 16.3033C13.9978 16.7834 13.8915 17.3 13.8915 17.8219C13.8915 18.3438 13.9978 18.8604 14.204 19.3405C14.4102 19.8207 14.7121 20.2546 15.0915 20.6162C15.4709 20.9778 15.9201 21.2596 16.412 21.4448C16.9039 21.63 17.4285 21.7147 17.9542 21.6938C18.9625 21.6538 19.9159 21.2283 20.615 20.5066C21.3141 19.7848 21.7045 18.8228 21.7045 17.8219C21.7045 16.821 21.3141 15.859 20.615 15.1372C19.9159 14.4155 18.9625 13.99 17.9542 13.95ZM31.9957 13.95C31.47 13.9291 30.9454 14.0138 30.4535 14.199C29.9616 14.3842 29.5124 14.666 29.133 15.0276C28.7536 15.3892 28.4517 15.8231 28.2455 16.3033C28.0393 16.7834 27.933 17.3 27.933 17.8219C27.933 18.3438 28.0393 18.8604 28.2455 19.3405C28.4517 19.8207 28.7536 20.2546 29.133 20.6162C29.5124 20.9778 29.9616 21.2596 30.4535 21.4448C30.9454 21.63 31.47 21.7147 31.9957 21.6938C33.004 21.6538 33.9575 21.2283 34.6565 20.5066C35.3556 19.7848 35.746 18.8228 35.746 17.8219C35.746 16.821 35.3556 15.859 34.6565 15.1372C33.9575 14.4155 33.004 13.99 31.9957 13.95Z" fill="#466C63"/>
</svg>
