<svg width="20" height="20" viewBox="0 0 20 20" fill="none" xmlns="http://www.w3.org/2000/svg">
<path d="M13.3345 4.76172C13.3345 4.51562 13.2477 4.27734 13.0914 4.10156L9.69181 0.273438C9.53555 0.0976562 9.32373 0 9.10149 0H8.88966V5H13.3345V4.76172ZM19.8281 12.0312L16.5049 8.26562C16.1542 7.87109 15.5534 8.14844 15.5534 8.70703V11.25H13.331V13.75H15.5534V16.2969C15.5534 16.8555 16.1542 17.1328 16.5049 16.7383L19.8281 12.9688C20.0573 12.7109 20.0573 12.2891 19.8281 12.0312ZM6.66725 13.125V11.875C6.66725 11.5312 6.91727 11.25 7.22285 11.25H13.3345V6.25H8.61186C8.15349 6.25 7.77845 5.82812 7.77845 5.3125L5.2381 0H0.833406C0.37156 0 0 0.417969 0 0.9375V19.0625C0 19.582 0.37156 20 0.833406 20H12.5011C12.9629 20 13.3345 19.582 13.3345 19.0625V13.75H7.22285C6.91727 13.75 6.66725 13.4687 6.66725 13.125Z" fill="#928484"/>
</svg>
