<svg width="29" height="29" viewBox="0 0 29 29" fill="none" xmlns="http://www.w3.org/2000/svg">
<path opacity="0.4" d="M25.775 8.9931C25.2687 8.67415 24.6464 8.64593 24.116 8.91581L22.3252 9.81992C21.663 10.1536 21.2522 10.8283 21.2522 11.5791V18.6279C21.2522 19.3786 21.663 20.0521 22.3252 20.3882L24.1148 21.2911C24.3576 21.4162 24.6174 21.4763 24.8772 21.4763C25.189 21.4763 25.4983 21.388 25.775 21.2151C26.2813 20.8973 26.5834 20.3465 26.5834 19.743V10.4664C26.5834 9.86285 26.2813 9.31205 25.775 8.9931Z" fill="#5A5685"/>
<path d="M14.3854 24.1667H7.38667C4.46006 24.1667 2.41675 22.1487 2.41675 19.2597V10.9486C2.41675 8.05844 4.46006 6.04169 7.38667 6.04169H14.3854C17.312 6.04169 19.3553 8.05844 19.3553 10.9486V19.2597C19.3553 22.1487 17.312 24.1667 14.3854 24.1667Z" fill="#5A5685"/>
</svg>
