<svg width="26" height="26" viewBox="0 0 26 26" fill="none" xmlns="http://www.w3.org/2000/svg">
<path d="M24.8432 19.8496L18.0492 13.0589L24.8394 6.26822C26.1455 4.96585 26.1455 2.84615 24.8394 1.54378C23.5333 0.22995 21.4214 0.23377 20.1153 1.53996L13.3213 8.33063L6.52735 1.53232C5.22126 0.226132 3.10555 0.23377 1.79946 1.53232C0.497186 2.83851 0.497186 4.95821 1.79946 6.26058L8.59724 13.0589L1.81473 19.8381C0.508643 21.1443 0.508643 23.264 1.81473 24.5625C2.46778 25.2194 3.31941 25.5441 4.17486 25.5441C5.03414 25.5441 5.88577 25.2194 6.53881 24.5664L13.3213 17.7833L20.1191 24.5778C20.7722 25.2309 21.6238 25.5555 22.4792 25.5555C23.3347 25.5555 24.1901 25.2271 24.8432 24.5778C26.1493 23.2716 26.1493 21.1557 24.8432 19.8496Z" fill="#6D8D86"/>
</svg>
