<svg width="56" height="56" viewBox="0 0 56 56" fill="none" xmlns="http://www.w3.org/2000/svg">
<path fill-rule="evenodd" clip-rule="evenodd" d="M15.5556 12.4444C15.5556 9.14397 16.8667 5.97868 19.2004 3.64489C21.5342 1.31111 24.6995 0 28 0C31.3005 0 34.4658 1.31111 36.7996 3.64489C39.1333 5.97868 40.4444 9.14397 40.4444 12.4444C40.4444 15.7449 39.1333 18.9102 36.7996 21.244C34.4658 23.5778 31.3005 24.8889 28 24.8889C24.6995 24.8889 21.5342 23.5778 19.2004 21.244C16.8667 18.9102 15.5556 15.7449 15.5556 12.4444ZM15.5556 31.1111C11.43 31.1111 7.47335 32.75 4.55612 35.6672C1.63888 38.5845 0 42.5411 0 46.6667C0 49.142 0.983331 51.516 2.73367 53.2663C4.48401 55.0167 6.85798 56 9.33333 56H46.6667C49.142 56 51.516 55.0167 53.2663 53.2663C55.0167 51.516 56 49.142 56 46.6667C56 42.5411 54.3611 38.5845 51.4439 35.6672C48.5267 32.75 44.57 31.1111 40.4444 31.1111H15.5556Z" fill="#456EC0" fill-opacity="0.43"/>
</svg>
